PathFileType	4	(X/Y/Z)	S00_P00_T01_BalancingTrial_0-100.trc
DataRate	CameraRate	NumFrames	NumMarkers	Units	OrigDataRate	OrigDataStartFrame	OrigNumFrames
60	60	6	21	m	60	25	100
Frame#	Time	RHip			RKnee			RAnkle			RBigToe			RSmallToe			RHeel			LHip			LKnee			LAnkle			LBigToe			LSmallToe			LHeel			Neck			Head			Nose			RShoulder			RElbow			RWrist			LShoulder			LElbow			LWrist		
		X1	Y1	Z1	X2	Y2	Z2	X3	Y3	Z3	X4	Y4	Z4	X5	Y5	Z5	X6	Y6	Z6	X7	Y7	Z7	X8	Y8	Z8	X9	Y9	Z9	X10	Y10	Z10	X11	Y11	Z11	X12	Y12	Z12	X13	Y13	Z13	X14	Y14	Z14	X15	Y15	Z15	X16	Y16	Z16	X17	Y17	Z17	X18	Y18	Z18	X19	Y19	Z19	X20	Y20	Z20	X21	Y21	Z21
26	0.4333333333333333	-0.16550268830262763	0.9498105197059802	-1.2003209919118734	-0.3751501764149931	0.6147348872232554	-1.063633879867555	-0.3420021882784947	0.242599935063365	-1.2777090746693571	-0.38016102390751705	0.14252487622037147	-1.1334503276047725	-0.4215769118193166	0.14901988038205155	-1.1755284069274923	-0.31604997591969947	0.21557311915223973	-1.3166507358246935	0.025498730977624527	0.8762830252201075	-1.172726198363987	-0.06114982538891211	0.5279435262093932	-0.9498483465768177	-0.013234768108774561	0.14631820712141627	-1.156380693408639	-0.009307895193395924	0.0815819602920399	-0.9960721450624127	0.02564179337518137	0.08248185674612236	-1.035036442900599	-0.005230887361173832	0.11519466244296855	-1.212696643983088	0.1871679301103443	1.3949653429787094	-1.1424996649384087	0.27505188469482833	1.6077258145918176	-0.9934804932622111	0.213890337963935	1.4775595473270122	-0.9592130925647355	0.02451382958329299	1.4322259945917748	-1.1808002337234247	-0.20890074750199056	1.3879759236946492	-1.2279475661844914	-0.3534619498689891	1.4782121279120424	-1.082004826812233	0.30801668518277103	1.2686990630018111	-1.1510183854912235	0.3422021676875097	0.9832523500879294	-1.14349264938433	0.33498248728831076	0.7313900467210513	-1.0890031002627736
27	0.45	-0.1692285906719537	0.9499206115896179	-1.1953334855696918	-0.3876868356933439	0.6214344063064057	-1.0553193918633015	-0.38015259380302946	0.2427152481639368	-1.2538739552498923	-0.41894122863141564	0.1473168050614474	-1.1080431579554717	-0.46077783464821603	0.15369061325619393	-1.1506924865220218	-0.3577973864727742	0.2152691334081154	-1.2919485794953636	0.02489300582431813	0.8747972183241136	-1.1604140054757357	-0.06148720962606928	0.5289605210126167	-0.9400369083414266	-0.012015143669911034	0.14638611245619265	-1.1551685100180704	-0.010302715778425824	0.08005190179058022	-0.9956464413826396	0.02414795960169029	0.08112828012086075	-1.0333708926851803	-0.004390874751449195	0.11458196523996224	-1.2115809063833334	0.19276481676911475	1.3885895259952692	-1.136011714799491	0.2875053145335054	1.6040242439721744	-0.9793248846085167	0.21978570853124263	1.4739304060398217	-0.9516838931438143	0.03132949470084537	1.430120155674092	-1.167527950073826	-0.2045721174959233	1.3946112920323144	-1.2225761690949155	-0.34729961100922624	1.4879268234771743	-1.082175600680404	0.31120093877914107	1.261979373523445	-1.145928567953814	0.33949014281935963	0.9772065557270876	-1.1388054951946789	0.3328678487213648	0.7223771666492528	-1.0749025264224377
28	0.4666666666666667	-0.17220721227509592	0.9511147769587116	-1.1858394140002044	-0.3997613748115564	0.6271489819321125	-1.047608928893191	-0.4179518582203687	0.24582960157949957	-1.2303459574971096	-0.4578708481907072	0.15486485386003396	-1.0824278084929382	-0.4987345134086847	0.16070326465427012	-1.128878861541785	-0.39918925469978067	0.2172836616386567	-1.269516877370743	0.02304196651027491	0.8737013800574613	-1.1513164778229172	-0.06205794461931295	0.5281071774692846	-0.9337337708441389	-0.011308872191437374	0.14543167192684264	-1.1544798815230353	-0.011158637830861363	0.0790199117254178	-0.9953786717097034	0.022955519805597402	0.0798999520008817	-1.0320250230286494	-0.0037307824965058557	0.11298262596207637	-1.210429974653506	0.19793611027830155	1.3821989529128946	-1.1288788290773617	0.2992195520955286	1.5999051571624172	-0.966603186012752	0.22515733039563002	1.4698287661265033	-0.9452308898445675	0.038158430874543764	1.4277543122694447	-1.1550464727804022	-0.2004435451829195	1.4018194700618383	-1.2170294116651448	-0.3409357169176792	1.4974867721574576	-1.0813599927565714	0.31408837128884	1.2552773251295963	-1.141805607013806	0.3370279456527295	0.9707987908700981	-1.1341006714114508	0.33140169248058027	0.7152696878554314	-1.0617696015176383
29	0.4833333333333333	-0.174385499914996	0.9534816411591275	-1.172221235849167	-0.4116292777717269	0.632713848010983	-1.0394884992087605	-0.4540534498378205	0.25137066783551437	-1.2080908930749077	-0.49513322519635994	0.1652432986889094	-1.0580145487251345	-0.53437423089553	0.1700605208946899	-1.1097736863276773	-0.4393675539965166	0.22156974611008157	-1.249192565488557	0.020275424566475447	0.8728784843978026	-1.1453990971181616	-0.06302240618134623	0.5259275056980354	-0.9299797838438663	-0.011244957011518326	0.14399560932625785	-1.154253137131342	-0.01167789560573004	0.07834964425587916	-0.9955992336692994	0.022277460068705453	0.07894807905003066	-1.0311540961110017	-0.003472315465541129	0.11102357355723565	-1.2092294916664803	0.20259589948818466	1.3759965272057342	-1.121252344418898	0.3098088061613679	1.5948064992193194	-0.956135816730068	0.23069567559872514	1.4645647023154882	-0.939257125214052	0.044688947167284214	1.4252172716662155	-1.1437554350253385	-0.19633816634949497	1.4090527511793531	-1.2114349039369856	-0.3344666731112735	1.5072622232945847	-1.0796374468287662	0.3168219808223695	1.2485808547534698	-1.138292982282328	0.3356629680829667	0.9639994193258424	-1.1287069594978778	0.3304896257550924	0.7100101422997968	-1.0493309567140081
30	0.5	-0.1761670651413416	0.9564401793810297	-1.1569712870343714	-0.4232975948926023	0.6386813076825172	-1.0309224100388568	-0.48762231685137014	0.2588057669737574	-1.187266195339448	-0.5291010809113496	0.1772438126281733	-1.0370446336212629	-0.566906253842088	0.18160436732837992	-1.0925989059619763	-0.4773081883881134	0.2277183066551295	-1.2306300267774175	0.01691927090110818	0.8720545447747802	-1.1417904241112817	-0.0641522408763508	0.5229506522174758	-0.9277834450804232	-0.011680014596082176	0.14262670237884995	-1.1545283688493757	-0.011760735650099195	0.07787366318919602	-0.996406172408933	0.02210654480759988	0.07838447072027614	-1.0307807472342452	-0.003622789504107389	0.10922769260541691	-1.208196095120999	0.20676302707081076	1.3702374256563954	-1.1134862390666032	0.3194949138084544	1.588894818976211	-0.9474313274988465	0.23705437043089925	1.4576465843983484	-0.9332020019710711	0.05049380488766274	1.4225525975934872	-1.1343341982376383	-0.19242921678375371	1.4157791236725394	-1.2065041469479623	-0.32771652279573626	1.517480087000039	-1.0769258906156656	0.3195009773741981	1.2419671959500727	-1.134820443972028	0.3359709738253932	0.9568547172689804	-1.1223726602736352	0.33014609404197387	0.7061359325461648	-1.0373826750082444
31	0.5166666666666667	-0.1781372297894738	0.9592799586083034	-1.142628362898413	-0.4346561136686751	0.6450220646784589	-1.023130165977086	-0.5183844508458401	0.2676861963002469	-1.1677297948548355	-0.559080453241722	0.18912083945820152	-1.0213502274481259	-0.5962684230032462	0.1948211124348539	-1.0765627389082737	-0.5121977641298167	0.23532245608660837	-1.213394756544924	0.013459300331265057	0.870941974722134	-1.1387176626982127	-0.06492292824169531	0.5196103362794935	-0.9262417867081927	-0.012340546401666343	0.1416407064246448	-1.1553024146293849	-0.011353098273811821	0.07744459624200044	-0.9976316682450775	0.02230215908013722	0.07822111963620657	-1.0309137803632666	-0.003998787087505664	0.10790308628061959	-1.2076101392537697	0.21043967850785758	1.3650921352697463	-1.1058256325053284	0.3286993729658916	1.582532072431364	-0.9397139870882177	0.2446166018739153	1.4490191823584526	-0.926868576925967	0.05520558114929862	1.4198318601802156	-1.12757398125731	-0.18917018882076514	1.4216294991069787	-1.2034070712332996	-0.32041095679731524	1.5282372612660253	-1.0729319783337126	0.3221364636142621	1.23558264864564	-1.1308423609432319	0.3379877343141541	0.949407130452101	-1.1154654676495959	0.33040314163773277	0.7029399396591967	-1.0260995492694056
